<?xml version="1.0" standalone="no"?>
<!DOCTYPE svg PUBLIC "-//W3C//DTD SVG 20010904//EN"
 "http://www.w3.org/TR/2001/REC-SVG-20010904/DTD/svg10.dtd">
<svg version="1.0" xmlns="http://www.w3.org/2000/svg"
 width="512.000000pt" height="512.000000pt" viewBox="0 0 512.000000 512.000000"
 preserveAspectRatio="xMidYMid meet">
<metadata>
Created by potrace 1.14, written by Peter Selinger 2001-2017
</metadata>
<g transform="translate(0.000000,512.000000) scale(0.100000,-0.100000)"
fill="#000000" stroke="none">
<path d="M4599 5021 c-14 -5 -36 -14 -50 -21 -21 -11 -236 -175 -249 -190 -3
-3 -25 -21 -50 -40 -25 -19 -63 -50 -85 -69 -23 -20 -65 -56 -94 -81 -30 -25
-72 -62 -95 -83 -23 -20 -48 -35 -56 -32 -8 2 -60 20 -115 39 -55 19 -143 43
-195 52 -90 16 -282 21 -360 10 -101 -14 -132 -20 -205 -41 -263 -77 -495
-227 -654 -425 -20 -25 -39 -47 -42 -50 -22 -17 -129 -199 -174 -293 -89 -190
-152 -396 -195 -642 -29 -166 -29 -163 -36 -227 l-7 -58 -96 -1 c-231 -3 -366
-22 -540 -76 -230 -72 -462 -241 -621 -452 -61 -80 -154 -264 -175 -346 -51
-193 -54 -370 -9 -542 41 -157 132 -328 244 -461 l68 -79 -31 -30 c-47 -42
-266 -224 -312 -258 -22 -17 -42 -32 -45 -35 -3 -3 -25 -21 -50 -40 -77 -60
-81 -64 -107 -104 -55 -86 -39 -208 38 -285 70 -69 179 -87 265 -43 38 20 231
167 350 267 130 109 201 171 249 216 l50 47 100 -33 c146 -49 246 -63 405 -59
153 4 169 6 281 34 360 92 633 310 798 637 66 130 140 348 167 487 2 12 8 44
14 71 5 28 12 64 14 80 3 17 11 73 20 125 8 52 18 120 21 150 4 30 10 73 14
94 l6 40 65 -4 c111 -6 362 -5 428 3 148 18 279 55 393 112 154 78 375 275
488 435 104 147 161 285 197 473 9 50 11 235 3 286 -4 25 -11 63 -14 85 -17
101 -79 253 -148 366 -37 59 -120 166 -140 181 -9 6 63 71 223 199 58 47 107
87 110 90 3 3 40 32 82 64 115 87 148 140 148 235 -1 144 -156 262 -291 222z
m-1053 -883 c1 -2 -18 -26 -44 -53 -375 -402 -670 -846 -790 -1190 -37 -107
-34 -104 -84 -95 -24 4 -70 11 -103 14 -33 4 -69 8 -80 11 -11 2 -24 4 -29 4
-4 1 -5 31 -1 68 7 63 9 79 20 148 2 17 7 48 11 70 9 63 62 263 89 337 119
329 310 542 577 642 68 26 91 32 163 42 22 4 42 8 44 9 4 5 222 -3 227 -7z
m539 -383 c57 -101 78 -178 81 -288 4 -186 -64 -336 -226 -497 -119 -120 -238
-194 -345 -215 -16 -3 -41 -8 -55 -11 -33 -8 -356 -15 -374 -8 -11 4 -7 22 19
83 94 223 265 491 459 720 74 88 82 97 236 260 l95 101 38 -42 c21 -24 53 -70
72 -103z m-2220 -1433 c-29 -96 -55 -163 -104 -261 -37 -75 -158 -281 -171
-291 -3 -3 -35 -45 -70 -94 -70 -98 -207 -264 -305 -368 l-63 -68 -49 53
c-106 118 -163 253 -168 401 -7 204 87 379 285 533 138 107 286 156 515 169
55 4 101 7 103 9 1 1 13 0 26 -2 l23 -5 -22 -76z m662 16 l63 -10 -6 -36 c-2
-21 -7 -48 -9 -62 -2 -14 -7 -45 -10 -70 -3 -25 -8 -56 -10 -70 -3 -14 -7 -47
-11 -75 -10 -91 -62 -319 -95 -415 -102 -304 -269 -474 -539 -550 -76 -21
-264 -38 -295 -26 -14 5 -5 19 47 79 94 107 187 222 251 312 31 44 60 85 65
90 12 17 106 167 134 215 107 187 200 422 243 613 6 28 7 29 58 22 29 -3 80
-11 114 -17z"/>
</g>
</svg>
